<mxfile host="65bd71144e">
    <diagram id="1hSkU5jE283ZK2aNsHq0" name="Page-1">
        <mxGraphModel dx="1337" dy="494" grid="0" gridSize="10" guides="1" tooltips="1" connect="1" arrows="1" fold="1" page="1" pageScale="1" pageWidth="850" pageHeight="1100" math="0" shadow="0">
            <root>
                <mxCell id="0"/>
                <mxCell id="1" parent="0"/>
                <mxCell id="26" value="" style="rounded=0;whiteSpace=wrap;html=1;dashed=1;dashPattern=1 1;" parent="1" vertex="1">
                    <mxGeometry x="140" y="200" width="360" height="100" as="geometry"/>
                </mxCell>
                <mxCell id="16" value="" style="rounded=0;whiteSpace=wrap;html=1;dashed=1;dashPattern=1 1;" parent="1" vertex="1">
                    <mxGeometry x="140" y="320" width="360" height="260" as="geometry"/>
                </mxCell>
                <mxCell id="2" value="COS Fleet Manager" style="rounded=0;whiteSpace=wrap;html=1;fillColor=#fff2cc;strokeColor=#d6b656;" parent="1" vertex="1">
                    <mxGeometry x="160" y="240" width="320" height="40" as="geometry"/>
                </mxCell>
                <mxCell id="10" style="edgeStyle=orthogonalEdgeStyle;rounded=0;orthogonalLoop=1;jettySize=auto;html=1;exitX=1;exitY=0.5;exitDx=0;exitDy=0;entryX=0.017;entryY=0.102;entryDx=0;entryDy=0;entryPerimeter=0;startArrow=classic;startFill=1;" parent="1" source="3" target="7" edge="1">
                    <mxGeometry relative="1" as="geometry"/>
                </mxCell>
                <mxCell id="27" style="edgeStyle=orthogonalEdgeStyle;rounded=0;orthogonalLoop=1;jettySize=auto;html=1;exitX=0.669;exitY=0.025;exitDx=0;exitDy=0;exitPerimeter=0;startArrow=classic;startFill=1;entryX=0.5;entryY=1;entryDx=0;entryDy=0;" parent="1" source="3" target="2" edge="1">
                    <mxGeometry relative="1" as="geometry">
                        <mxPoint x="320" y="301" as="targetPoint"/>
                    </mxGeometry>
                </mxCell>
                <mxCell id="3" value="COS FleetShard Synchronizer" style="rounded=0;whiteSpace=wrap;html=1;fillColor=#fff2cc;strokeColor=#d6b656;" parent="1" vertex="1">
                    <mxGeometry x="160" y="360" width="240" height="40" as="geometry"/>
                </mxCell>
                <mxCell id="58" value="" style="edgeStyle=orthogonalEdgeStyle;rounded=0;orthogonalLoop=1;jettySize=auto;html=1;entryX=-0.047;entryY=0.353;entryDx=0;entryDy=0;entryPerimeter=0;startArrow=classic;startFill=1;" parent="1" source="4" target="7" edge="1">
                    <mxGeometry relative="1" as="geometry"/>
                </mxCell>
                <mxCell id="4" value="COS FleetShard Operator Camel" style="rounded=0;whiteSpace=wrap;html=1;fillColor=#fff2cc;strokeColor=#d6b656;" parent="1" vertex="1">
                    <mxGeometry x="160" y="410" width="240" height="40" as="geometry"/>
                </mxCell>
                <mxCell id="60" value="" style="edgeStyle=orthogonalEdgeStyle;rounded=0;orthogonalLoop=1;jettySize=auto;html=1;entryX=0.029;entryY=0.657;entryDx=0;entryDy=0;entryPerimeter=0;startArrow=classic;startFill=1;" parent="1" source="6" target="7" edge="1">
                    <mxGeometry relative="1" as="geometry">
                        <mxPoint x="437" y="493" as="targetPoint"/>
                    </mxGeometry>
                </mxCell>
                <mxCell id="6" value="camel-k" style="rounded=0;whiteSpace=wrap;html=1;fillColor=#dae8fc;strokeColor=#6c8ebf;" parent="1" vertex="1">
                    <mxGeometry x="159" y="472" width="241" height="40" as="geometry"/>
                </mxCell>
                <mxCell id="7" value="kcp" style="rounded=0;whiteSpace=wrap;html=1;fillColor=#fff2cc;strokeColor=#d6b656;" parent="1" vertex="1">
                    <mxGeometry x="439" y="360" width="41" height="200" as="geometry"/>
                </mxCell>
                <mxCell id="28" value="&lt;font style=&quot;font-size: 10px&quot;&gt;&lt;i&gt;Connectors Control Plane&lt;/i&gt;&lt;/font&gt;" style="text;html=1;strokeColor=none;fillColor=none;align=left;verticalAlign=middle;whiteSpace=wrap;rounded=0;dashed=1;dashPattern=1 1;" parent="1" vertex="1">
                    <mxGeometry x="150" y="200" width="139" height="20" as="geometry"/>
                </mxCell>
                <mxCell id="29" value="&lt;font style=&quot;font-size: 10px&quot;&gt;&lt;i&gt;Connector Cluster&lt;/i&gt;&lt;/font&gt;" style="text;html=1;strokeColor=none;fillColor=none;align=left;verticalAlign=middle;whiteSpace=wrap;rounded=0;dashed=1;dashPattern=1 1;" parent="1" vertex="1">
                    <mxGeometry x="150" y="320" width="130" height="20" as="geometry"/>
                </mxCell>
                <mxCell id="32" value="" style="rounded=0;whiteSpace=wrap;html=1;dashed=1;dashPattern=1 1;" parent="1" vertex="1">
                    <mxGeometry x="520" y="450" width="160" height="130" as="geometry"/>
                </mxCell>
                <mxCell id="41" value="KIND" style="rounded=0;whiteSpace=wrap;html=1;fillColor=#f8cecc;strokeColor=#b85450;" parent="1" vertex="1">
                    <mxGeometry x="552" y="495" width="80" height="40" as="geometry"/>
                </mxCell>
                <mxCell id="43" value="" style="endArrow=classic;html=1;exitX=1;exitY=0.25;exitDx=0;exitDy=0;startArrow=classic;startFill=1;" parent="1" edge="1">
                    <mxGeometry width="50" height="50" relative="1" as="geometry">
                        <mxPoint x="480" y="520" as="sourcePoint"/>
                        <mxPoint x="520" y="520" as="targetPoint"/>
                    </mxGeometry>
                </mxCell>
                <mxCell id="46" value="" style="shape=curlyBracket;whiteSpace=wrap;html=1;rounded=1;rotation=-90;strokeColor=#4D4D4D;" parent="1" vertex="1">
                    <mxGeometry x="310" y="430" width="20" height="361.5" as="geometry"/>
                </mxCell>
                <mxCell id="47" value="" style="shape=curlyBracket;whiteSpace=wrap;html=1;rounded=1;rotation=-90;" parent="1" vertex="1">
                    <mxGeometry x="590" y="530.87" width="20" height="159.75" as="geometry"/>
                </mxCell>
                <mxCell id="48" value="&lt;i&gt;&lt;font style=&quot;font-size: 10px&quot;&gt;&lt;b&gt;Logical Cluster&lt;/b&gt;&lt;/font&gt;&lt;/i&gt;" style="text;html=1;strokeColor=none;fillColor=none;align=center;verticalAlign=middle;whiteSpace=wrap;rounded=0;" parent="1" vertex="1">
                    <mxGeometry x="248" y="627" width="144" height="20" as="geometry"/>
                </mxCell>
                <mxCell id="49" value="&lt;i&gt;&lt;font style=&quot;font-size: 10px&quot;&gt;&lt;b&gt;Workers&lt;/b&gt;&lt;/font&gt;&lt;/i&gt;" style="text;html=1;strokeColor=none;fillColor=none;align=center;verticalAlign=middle;whiteSpace=wrap;rounded=0;" parent="1" vertex="1">
                    <mxGeometry x="528" y="627" width="144" height="20" as="geometry"/>
                </mxCell>
                <mxCell id="50" value="" style="shape=curlyBracket;whiteSpace=wrap;html=1;rounded=1;strokeColor=#4D4D4D;" parent="1" vertex="1">
                    <mxGeometry x="102" y="200" width="20" height="99" as="geometry"/>
                </mxCell>
                <mxCell id="51" value="" style="shape=curlyBracket;whiteSpace=wrap;html=1;rounded=1;strokeColor=#4D4D4D;" parent="1" vertex="1">
                    <mxGeometry x="102" y="320" width="20" height="260" as="geometry"/>
                </mxCell>
                <mxCell id="52" value="&lt;i&gt;&lt;font style=&quot;font-size: 10px&quot;&gt;&lt;b&gt;Control Plane&lt;/b&gt;&lt;/font&gt;&lt;/i&gt;" style="text;html=1;strokeColor=none;fillColor=none;align=center;verticalAlign=middle;whiteSpace=wrap;rounded=0;rotation=-90;" parent="1" vertex="1">
                    <mxGeometry x="46" y="237" width="67" height="20" as="geometry"/>
                </mxCell>
                <mxCell id="53" value="&lt;i&gt;&lt;font style=&quot;font-size: 10px&quot;&gt;&lt;b&gt;Data Plane&lt;/b&gt;&lt;/font&gt;&lt;/i&gt;" style="text;html=1;strokeColor=none;fillColor=none;align=center;verticalAlign=middle;whiteSpace=wrap;rounded=0;rotation=-90;" parent="1" vertex="1">
                    <mxGeometry x="46" y="440" width="67" height="20" as="geometry"/>
                </mxCell>
            </root>
        </mxGraphModel>
    </diagram>
</mxfile>